<?xml version="1.0" encoding="utf-8"?>
<!-- Generator: Adobe Illustrator 16.0.0, SVG Export Plug-In . SVG Version: 6.00 Build 0)  -->
<!DOCTYPE svg PUBLIC "-//W3C//DTD SVG 1.1//EN" "http://www.w3.org/Graphics/SVG/1.1/DTD/svg11.dtd">
<svg version="1.1" id="Layer_1" xmlns="http://www.w3.org/2000/svg" xmlns:xlink="http://www.w3.org/1999/xlink" x="0px" y="0px"
	 width="361.835px" height="278.396px" viewBox="0 0 361.835 278.396" enable-background="new 0 0 361.835 278.396"
	 xml:space="preserve">
<g>
	<defs>
		<rect id="SVGID_1_" width="361.835" height="278.396"/>
	</defs>
	<clipPath id="SVGID_2_">
		<use xlink:href="#SVGID_1_"  overflow="visible"/>
	</clipPath>
	<g clip-path="url(#SVGID_2_)">
		<text transform="matrix(1.0871 0 0 1 0 237.1372)" fill="#FBAF32" font-family="'ArnoPro-Regular'" font-size="40.2398">P</text>
	</g>
</g>
<text transform="matrix(1.0871 0 0 1 23.0093 237.1372)" fill="#FBAF32" font-family="'ArnoPro-Regular'" font-size="40.2398">I</text>
<text transform="matrix(1.0871 0 0 1 36.2202 237.1372)" fill="#FBAF32" font-family="'ArnoPro-Regular'" font-size="40.2398">S</text>
<text transform="matrix(1.0871 0 0 1 56.5176 237.1372)" fill="#FBAF32" font-family="'ArnoPro-Regular'" font-size="40.2398">T</text>
<text transform="matrix(1.0871 0 0 1 80.1392 237.1372)" fill="#FBAF32" font-family="'ArnoPro-Regular'" font-size="40.2398">A</text>
<text transform="matrix(1.0871 0 0 1 105.5986 237.1372)"><tspan x="0" y="0" fill="#FBAF32" font-family="'ArnoPro-Regular'" font-size="40.2398">C</tspan><tspan x="26.679" y="0" fill="#FBAF32" font-family="'ArnoPro-Regular'" font-size="40.2398">H</tspan></text>
<text transform="matrix(1.0871 0 0 1 167.4966 237.1372)" fill="#FBAF32" font-family="'ArnoPro-Regular'" font-size="40.2398">I</text>
<g>
	<defs>
		<rect id="SVGID_3_" width="361.835" height="278.396"/>
	</defs>
	<clipPath id="SVGID_4_">
		<use xlink:href="#SVGID_3_"  overflow="visible"/>
	</clipPath>
	<g clip-path="url(#SVGID_4_)">
		<text transform="matrix(1.0871 0 0 1 180.7046 237.1372)"><tspan x="0" y="0" fill="#FBAF32" font-family="'ArnoPro-Regular'" font-size="40.2398">O H</tspan><tspan x="67.762" y="0" fill="#FBAF32" font-family="'ArnoPro-Regular'" font-size="40.2398" letter-spacing="-0.92">O</tspan><tspan x="96.775" y="0" fill="#FBAF32" font-family="'ArnoPro-Regular'" font-size="40.2398">TEL</tspan></text>
	</g>
	<g clip-path="url(#SVGID_4_)">
		<text transform="matrix(1.0871 0 0 1 130.4341 278.396)"><tspan x="0" y="0" fill="#FBAF32" font-family="'aPFutura'" font-size="26.5521" letter-spacing="10.119">SA</tspan><tspan x="50.582" y="0" fill="#FBAF32" font-family="'aPFutura'" font-size="26.5521" letter-spacing="8.279">P</tspan><tspan x="73.071" y="0" fill="#FBAF32" font-family="'aPFutura'" font-size="26.5521">A</tspan></text>
	</g>
	<path clip-path="url(#SVGID_4_)" fill="#FFFFFF" d="M185.681,94.432c-0.021,0.022-0.036,0.035-0.052,0.047
		c-0.015,0.013-0.029,0.025-0.047,0.029C185.612,94.482,185.651,94.456,185.681,94.432"/>
	<path clip-path="url(#SVGID_4_)" fill="#FBAF32" d="M257.781,115.503c-6.019-3.106-12.132-5.825-18.339-8.337
		c-6.206-2.503-12.502-4.745-18.883-6.63c-6.381-1.885-12.857-3.419-19.403-4.387c-6.538-0.968-13.162-1.332-19.698-0.667
		c6.55-0.499,13.149,0.047,19.639,1.17c6.493,1.139,12.897,2.832,19.205,4.868c6.309,2.043,12.521,4.43,18.632,7.07
		c5.668,2.468,11.301,5.139,16.748,8.067c-5.858,5.899-12.164,11.209-18.896,15.774c-7.049,4.852-14.597,8.824-22.439,11.853
		c-13.984,5.434-25.006,6.083-39.991,4.673c-12.905-1.213-27.88-5.662-36.871-15.551c-8.775-9.651-12.508-22.4-10.814-35.31
		c1.264-9.636,5.247-18.772,10.53-26.929c20.327-31.382,60.27-50.753,95.916-32.196c-13.297,21.748-32.45,39.194-51.445,56.194
		c19.783-13.455,37.715-29.629,53.13-47.925c2.425-2.879,4.94-6.506,3.821-10.1c-0.864-2.777-3.625-4.461-6.243-5.731
		c-17.733-8.599-37.767-9.028-56.384-3.183c-27.813,8.731-52.841,31.017-61.725,59.171c-6.031,19.111-2.817,41.129,11.366,55.863
		c11.064,11.789,28.66,17.099,44.406,17.875c16.095,0.793,32.676-2.94,47.185-9.862c16.212-7.734,30.294-19.683,40.857-34.169
		l0.794-1.1L257.781,115.503z M233.325,38.187l-0.054,0.093C233.281,38.25,233.312,38.199,233.325,38.187"/>
	<path clip-path="url(#SVGID_4_)" d="M185.681,94.432c-0.021,0.022-0.036,0.035-0.052,0.047c-0.015,0.013-0.029,0.025-0.047,0.029
		C185.612,94.482,185.651,94.456,185.681,94.432"/>
	<path clip-path="url(#SVGID_4_)" fill="#FBB034" d="M216.011,20.961c0,0-34.105-3.677-55.001,7.596
		c-13.394,7.225-23.36,14.873-30.836,22.357c10.21-14.388,26.649-37.013,32.86-45.561C195.401,8.631,216.011,20.961,216.011,20.961"
		/>
	<path clip-path="url(#SVGID_4_)" fill="#D56C30" d="M163.034,5.353c-6.212,8.548-22.651,31.173-32.86,45.562
		c-21.258,21.24-22.513,41.131-25.463,46.228c0.328-0.563-2.077-18.222-0.796-40.994c10.373-19.986,28.837-43.373,35.343-51.367
		C147.72,4.341,155.68,4.618,163.034,5.353"/>
	<path clip-path="url(#SVGID_4_)" fill="#1B537D" d="M139.258,4.782c-6.506,7.995-24.97,31.381-35.343,51.367
		c0.839-14.838,3.244-31.856,8.989-47.733C122.11,6.348,130.926,5.215,139.258,4.782"/>
	<path clip-path="url(#SVGID_4_)" fill="#FBAF32" d="M206.658,48.59c0,2.857-2.317,5.174-5.174,5.174
		c-2.858,0-5.175-2.317-5.175-5.174c0-2.858,2.316-5.175,5.175-5.175C204.341,43.415,206.658,45.732,206.658,48.59"/>
	<path clip-path="url(#SVGID_4_)" fill="#FBAF32" d="M238.333,41.764c0,0-14.447,27.118-47.4,50.565c0,0,29.585-0.067,67.946,23.675
		l-3.729,1.89c0,0-44.019-19.987-79.827-19.512c0,0,42.797-32.654,50.005-43.466C232.535,44.104,238.333,41.764,238.333,41.764"/>
	<path clip-path="url(#SVGID_4_)" fill="#FBAF32" d="M69.246,251.635c9.33-0.244,18.66-0.35,27.99-0.526l27.991-0.301
		c18.661-0.179,37.321-0.162,55.981-0.252c18.661,0.085,37.32,0.075,55.98,0.248l27.991,0.301c9.33,0.18,18.66,0.285,27.991,0.53
		c-9.331,0.244-18.661,0.35-27.991,0.528l-27.991,0.302c-18.66,0.172-37.319,0.163-55.98,0.248
		c-18.66-0.091-37.32-0.074-55.981-0.252l-27.991-0.301C87.906,251.983,78.576,251.877,69.246,251.635"/>
	<path clip-path="url(#SVGID_4_)" fill="#FBAF32" d="M69.246,198.881c9.33-0.243,18.66-0.348,27.99-0.526l27.991-0.301
		c18.661-0.178,37.321-0.161,55.981-0.252c18.661,0.085,37.32,0.076,55.98,0.248l27.991,0.302c9.33,0.18,18.66,0.284,27.991,0.529
		c-9.331,0.245-18.661,0.35-27.991,0.529l-27.991,0.302c-18.66,0.172-37.319,0.163-55.98,0.248
		c-18.66-0.091-37.32-0.074-55.981-0.252l-27.991-0.301C87.906,199.229,78.576,199.125,69.246,198.881"/>
	<polygon clip-path="url(#SVGID_4_)" fill="#FBAF32" points="138.288,170.79 140.142,176.495 146.14,176.495 141.287,180.02 
		143.141,185.725 138.288,182.199 133.435,185.725 135.289,180.02 130.436,176.495 136.434,176.495 	"/>
	<polygon clip-path="url(#SVGID_4_)" fill="#FBAF32" points="163.85,170.79 165.704,176.495 171.702,176.495 166.849,180.02 
		168.703,185.725 163.85,182.199 158.997,185.725 160.851,180.02 155.998,176.495 161.996,176.495 	"/>
	<polygon clip-path="url(#SVGID_4_)" fill="#FBAF32" points="189.413,170.79 191.267,176.495 197.265,176.495 192.412,180.02 
		194.266,185.725 189.413,182.199 184.56,185.725 186.414,180.02 181.561,176.495 187.559,176.495 	"/>
	<polygon clip-path="url(#SVGID_4_)" fill="#FBAF32" points="214.976,170.79 216.829,176.495 222.827,176.495 217.976,180.02 
		219.828,185.725 214.976,182.199 210.122,185.725 211.977,180.02 207.123,176.495 213.121,176.495 	"/>
</g>
</svg>
